#N canvas 398 210 450 300 10;
#X floatatom 118 63 5 0 0 0 - - -, f 5;
#X obj 118 82 expr 1000/($f1/60);
#X floatatom 118 104 5 0 0 0 - - -, f 5;
#X obj 118 123 metro;
#X obj 96 108 tgl 15 0 empty empty empty 17 7 0 10 -262144 -1 -1 0
1;
#X obj 118 148 bng 15 250 50 0 empty empty empty 17 7 0 10 -262144
-1 -1;
#X obj 137 174 del 50;
#X msg 137 201 0;
#X msg 173 201 1;
#X obj 67 201 osc~ 3000;
#X obj 119 229 *~;
#X obj 118 258 dac~;
#X text 114 2 BPM Control \, made by Emil Zahariev;
#X obj 101 31 hsl 128 15 0 500 0 0 empty empty empty -2 -8 0 10 -262144
-1 -1 0 1;
#X text 196 137 Everything from the bang down is not needed for implementation
and can be removed. It is just a test sound.;
#X connect 0 0 1 0;
#X connect 1 0 2 0;
#X connect 2 0 3 1;
#X connect 3 0 5 0;
#X connect 4 0 3 0;
#X connect 5 0 6 0;
#X connect 5 0 8 0;
#X connect 6 0 8 0;
#X connect 6 0 7 0;
#X connect 7 0 10 1;
#X connect 8 0 10 1;
#X connect 9 0 10 0;
#X connect 10 0 11 0;
#X connect 10 0 11 1;
#X connect 13 0 0 0;
