#N canvas 47 -573 704 369 10;
#X obj 25 247 noteout 1;
#X msg 13 159 60;
#X msg 56 159 64;
#X msg 102 158 67;
#X obj 35 103 t b b b;
#X obj 312 29 bng 15 250 50 0 empty empty empty 17 7 0 10 -262144 -1
-1;
#X obj 161 289 noteout 1;
#X obj 171 145 t b b b;
#X obj 168 117 del 4000;
#X msg 149 201 62;
#X msg 192 201 66;
#X msg 238 200 69;
#X obj 323 291 noteout 1;
#X obj 325 144 t b b b;
#X obj 322 116 del 8000;
#X msg 303 200 64;
#X msg 346 200 69;
#X msg 392 199 73;
#X obj 452 291 noteout 1;
#X obj 454 144 t b b b;
#X msg 432 200 65;
#X msg 475 200 69;
#X msg 521 199 72;
#X obj 451 116 del 12000;
#X obj 439 246 makenote 80 4000;
#X obj 310 246 makenote 80 4000;
#X obj 156 247 makenote 80 4000;
#X obj 20 205 makenote 80 4000;
#X connect 1 0 27 0;
#X connect 2 0 27 0;
#X connect 3 0 27 0;
#X connect 4 0 1 0;
#X connect 4 1 2 0;
#X connect 4 2 3 0;
#X connect 5 0 8 0;
#X connect 5 0 4 0;
#X connect 5 0 14 0;
#X connect 5 0 23 0;
#X connect 7 0 9 0;
#X connect 7 1 10 0;
#X connect 7 2 11 0;
#X connect 8 0 7 0;
#X connect 9 0 26 0;
#X connect 10 0 26 0;
#X connect 11 0 26 0;
#X connect 13 0 15 0;
#X connect 13 1 16 0;
#X connect 13 2 17 0;
#X connect 14 0 13 0;
#X connect 15 0 25 0;
#X connect 16 0 25 0;
#X connect 17 0 25 0;
#X connect 19 0 20 0;
#X connect 19 1 21 0;
#X connect 19 2 22 0;
#X connect 20 0 24 0;
#X connect 21 0 24 0;
#X connect 22 0 24 0;
#X connect 23 0 19 0;
#X connect 24 0 18 0;
#X connect 24 1 18 1;
#X connect 25 0 12 0;
#X connect 25 1 12 1;
#X connect 26 0 6 0;
#X connect 26 1 6 1;
#X connect 27 0 0 0;
#X connect 27 1 0 1;
