#N canvas 0 23 1280 708 10;
#X obj 94 223 dac~;
#X obj 91 171 readsf~;
#X obj 32 188 bng 15 250 50 0 empty empty empty 17 7 0 10 -262144 -1
-1;
#X msg 59 144 0;
#X obj 33 129 bng 15 250 50 0 empty empty empty 17 7 0 10 -262144 -1
-1;
#X obj 457 321 dac~;
#X obj 456 188 readsf~;
#X obj 416 201 bng 15 250 50 0 empty empty empty 17 7 0 10 -262144
-1 -1;
#X msg 413 150 0;
#X obj 387 135 bng 15 250 50 0 empty empty empty 17 7 0 10 -262144
-1 -1;
#X msg 91 145 open PianoMelody.wav \, 1;
#X msg 470 150 open AcousticGuitarEdit.wav \, 2;
#X obj 94 197 *~;
#X obj 293 28 vsl 15 128 0 1 0 0 empty empty empty 0 -9 0 10 -262144
-1 -1 0 1;
#X obj 463 235 *~;
#X floatatom 340 180 5 0 0 0 - - -, f 5;
#X floatatom 361 224 5 0 0 0 - - -, f 5;
#X obj 325 203 -;
#X msg 291 176 1;
#N canvas 0 22 450 278 (subpatch) 0;
#X array channelR 460013 float 0;
#X coords 0 1 460012 -1 200 140 1 0 0;
#X restore 88 548 graph;
#N canvas 0 22 450 278 (subpatch) 0;
#X array channelL 460013 float 0;
#X coords 0 1 460012 -1 200 140 1;
#X restore 84 385 graph;
#X obj 323 440 soundfiler;
#X floatatom 353 466 12 0 0 0 - - -, f 12;
#X obj 323 509 expr 44100 / $f1;
#X obj 354 486 s sampleSize;
#X floatatom 350 537 12 0 0 0 - - -, f 12;
#X obj 324 567 phasor~;
#X obj 324 610 *~;
#X obj 350 588 r sampleSize;
#X obj 353 693 tabread4~ channelL;
#X obj 326 669 tabread4~ channelR;
#X obj 368 730 *~;
#X obj 326 728 *~;
#X obj 324 763 dac~ 1 2;
#X obj 413 639 snapshot~;
#X obj 412 615 metro 50;
#X obj 439 594 tgl 15 0 empty empty empty 17 7 0 10 -262144 -1 -1 1
1;
#X floatatom 448 660 12 0 0 0 - - -, f 12;
#X obj 510 685 /;
#X obj 544 659 r sampleSize;
#X floatatom 532 717 5 0 0 0 - - -, f 5;
#X obj 531 758 hsl 195 15 0 1 0 0 empty empty empty -2 -8 0 10 -262144
-1 -1 0 1;
#X obj 470 520 hsl 128 15 0.0479335 0.191734 0 1 empty empty -2 -8
0 0 4 -262144 -1 -1 4233 0;
#X floatatom 455 544 5 0 0 0 - - -, f 5;
#X msg 456 490 0.0958669;
#X text 456 473 playback Speed;
#N canvas 0 22 450 278 (subpatch) 0;
#X array channelR2 398663 float 0;
#X coords 0 1 398662 -1 200 140 1 0 0;
#X restore 650 555 graph;
#N canvas 0 22 450 278 (subpatch) 0;
#X array channelL2 398663 float 0;
#X coords 0 1 398662 -1 200 140 1 0 0;
#X restore 646 392 graph;
#X obj 885 447 soundfiler;
#X floatatom 915 473 12 0 0 0 - - -, f 12;
#X obj 885 516 expr 44100 / $f1;
#X floatatom 912 544 12 0 0 0 - - -, f 12;
#X obj 886 574 phasor~;
#X obj 886 617 *~;
#X obj 903 808 *~;
#X obj 930 737 *~;
#X obj 888 735 *~;
#X obj 886 770 dac~ 1 2;
#X obj 975 646 snapshot~;
#X obj 974 622 metro 50;
#X obj 1001 601 tgl 15 0 empty empty empty 17 7 0 10 -262144 -1 -1
1 1;
#X floatatom 1010 667 12 0 0 0 - - -, f 12;
#X obj 1072 692 /;
#X floatatom 1094 724 5 0 0 0 - - -, f 5;
#X obj 1093 765 hsl 195 15 0 1 0 0 empty empty empty -2 -8 0 10 -262144
-1 -1 0 1;
#X obj 1025 527 hsl 128 15 0.05531 0.22124 0 1 empty empty -2 -8 0
0 4 -262144 -1 -1 5900 0;
#X floatatom 1017 551 5 0 0 0 - - -, f 5;
#X text 1018 480 playback Speed;
#X obj 888 676 tabread4~ channelR2;
#X obj 915 700 tabread4~ channelL2;
#X msg 1018 497 0.11062;
#X obj 767 724 vsl 15 128 0 1 0 0 empty empty empty 0 -9 0 10 -262144
-1 -1 12700 1;
#X floatatom 809 876 5 0 0 0 - - -, f 5;
#X floatatom 830 920 5 0 0 0 - - -, f 5;
#X obj 794 899 -;
#X msg 760 872 1;
#X obj 916 493 s sampleSize2;
#X obj 912 600 r sampleSize2;
#X obj 1106 666 r sampleSize2;
#X msg 323 415 read -resize \$1 channelL channelR;
#X msg 885 422 read -resize \$1 channelL2 channelR2;
#X obj 324 389 openpanel;
#X obj 885 393 openpanel;
#X obj 321 365 bng 15 250 50 0 empty empty empty 17 7 0 10 -262144
-1 -1;
#X obj 883 369 bng 15 250 50 0 empty empty empty 17 7 0 10 -262144
-1 -1;
#X msg 855 288 open AcousticGuitar.wav;
#X obj 856 317 readsf~ 2;
#X obj 983 804 bng 15 250 50 0 bangTime empty empty 17 7 0 10 -262144
-1 -1;
#X obj 975 903 line;
#X obj 1093 794 vsl 15 128 500 2000 0 0 empty bangTime empty 0 -9 0
10 -262144 -1 -1 12700 1;
#X floatatom 1121 938 5 0 0 0 - - -, f 5;
#X msg 1079 933 1;
#X obj 1064 959 pack \$1 \$2;
#X msg 971 873 \$1 \$2;
#X msg 1018 854 1 10;
#X obj 1019 830 del 2000;
#X obj 679 850 vsl 15 128 500 2000 0 0 empty bangTime2 empty 0 -9 0
10 -262144 -1 -1 12700 1;
#X floatatom 669 986 5 0 0 0 - - -, f 5;
#X obj 576 863 bng 15 250 50 0 bangTime2 empty empty 17 7 0 10 -262144
-1 -1;
#X msg 537 910 1 10;
#X obj 609 973 line;
#X obj 596 892 del 500;
#X msg 595 927 0 \$1;
#X obj 694 1407 *~;
#X obj 100 1136 hsl 128 15 0 1 0 0 empty empty empty -2 -6 0 8 -262144
-1 -1 6400 1;
#X obj 278 1208 dac~;
#N canvas 628 25 450 300 crossfader 0;
#X obj 69 32 inlet;
#X obj 215 29 inlet~;
#X obj 132 25 inlet~;
#X obj 154 160 *~;
#X obj 69 94 *;
#X obj 69 63 t f f;
#X msg 136 84 1 \$1;
#X obj 136 112 -;
#X obj 117 152 *~;
#X obj 154 200 +~;
#X obj 153 235 /~ 2;
#X obj 152 272 outlet~;
#X connect 0 0 5 0;
#X connect 1 0 3 0;
#X connect 2 0 8 0;
#X connect 3 0 9 1;
#X connect 4 0 3 1;
#X connect 4 0 6 0;
#X connect 5 0 4 0;
#X connect 5 1 4 1;
#X connect 6 0 7 0;
#X connect 7 0 8 1;
#X connect 8 0 9 0;
#X connect 9 0 10 0;
#X connect 10 0 11 0;
#X restore 262 1168 pd crossfader;
#X obj 175 1083 readsf~;
#X obj 116 1100 bng 15 250 50 0 empty empty empty 17 7 0 10 -262144
-1 -1;
#X msg 143 1056 0;
#X obj 117 1041 bng 15 250 50 0 empty empty empty 17 7 0 10 -262144
-1 -1;
#X obj 418 1105 readsf~;
#X obj 378 1118 bng 15 250 50 0 empty empty empty 17 7 0 10 -262144
-1 -1;
#X msg 375 1067 0;
#X obj 349 1052 bng 15 250 50 0 empty empty empty 17 7 0 10 -262144
-1 -1;
#X msg 175 1057 open PianoMelody.wav \, 1;
#X msg 432 1067 open AcousticGuitarEdit.wav \, 2;
#X obj 647 1013;
#X connect 1 0 12 0;
#X connect 1 1 2 0;
#X connect 2 0 10 0;
#X connect 3 0 1 0;
#X connect 4 0 3 0;
#X connect 6 0 14 0;
#X connect 6 1 7 0;
#X connect 7 0 11 0;
#X connect 8 0 6 0;
#X connect 9 0 8 0;
#X connect 10 0 1 0;
#X connect 11 0 6 0;
#X connect 12 0 0 0;
#X connect 12 0 0 1;
#X connect 13 0 12 1;
#X connect 13 0 15 0;
#X connect 13 0 18 0;
#X connect 14 0 5 0;
#X connect 14 0 5 1;
#X connect 15 0 17 1;
#X connect 16 0 14 1;
#X connect 17 0 16 0;
#X connect 18 0 17 0;
#X connect 21 0 22 0;
#X connect 21 0 23 0;
#X connect 22 0 24 0;
#X connect 23 0 25 0;
#X connect 23 0 26 0;
#X connect 26 0 27 0;
#X connect 27 0 29 0;
#X connect 27 0 30 0;
#X connect 27 0 34 0;
#X connect 28 0 27 1;
#X connect 29 0 31 0;
#X connect 30 0 32 0;
#X connect 31 0 33 1;
#X connect 32 0 33 0;
#X connect 34 0 37 0;
#X connect 35 0 34 0;
#X connect 36 0 35 0;
#X connect 37 0 38 0;
#X connect 38 0 40 0;
#X connect 39 0 38 1;
#X connect 40 0 41 0;
#X connect 42 0 43 0;
#X connect 43 0 26 0;
#X connect 44 0 42 0;
#X connect 48 0 49 0;
#X connect 48 0 50 0;
#X connect 49 0 76 0;
#X connect 50 0 51 0;
#X connect 50 0 52 0;
#X connect 52 0 53 0;
#X connect 53 0 58 0;
#X connect 53 0 68 0;
#X connect 53 0 69 0;
#X connect 55 0 57 1;
#X connect 56 0 57 0;
#X connect 58 0 61 0;
#X connect 59 0 58 0;
#X connect 60 0 59 0;
#X connect 61 0 62 0;
#X connect 62 0 63 0;
#X connect 63 0 64 0;
#X connect 65 0 66 0;
#X connect 66 0 52 0;
#X connect 68 0 56 0;
#X connect 69 0 55 0;
#X connect 70 0 65 0;
#X connect 71 0 72 0;
#X connect 71 0 75 0;
#X connect 71 0 31 1;
#X connect 71 0 32 1;
#X connect 72 0 74 1;
#X connect 73 0 56 1;
#X connect 73 0 55 1;
#X connect 74 0 73 0;
#X connect 75 0 74 0;
#X connect 77 0 53 1;
#X connect 78 0 62 1;
#X connect 79 0 21 0;
#X connect 80 0 48 0;
#X connect 81 0 79 0;
#X connect 82 0 80 0;
#X connect 83 0 81 0;
#X connect 84 0 82 0;
#X connect 85 0 86 0;
#X connect 87 0 93 0;
#X connect 87 0 95 0;
#X connect 88 0 71 0;
#X connect 89 0 90 0;
#X connect 89 0 91 0;
#X connect 90 0 92 1;
#X connect 91 0 92 0;
#X connect 92 0 93 0;
#X connect 93 0 88 0;
#X connect 94 0 88 0;
#X connect 95 0 94 0;
#X connect 96 0 97 0;
#X connect 97 0 117 0;
#X connect 98 0 99 0;
#X connect 98 0 101 0;
#X connect 99 0 100 0;
#X connect 100 0 71 0;
#X connect 101 0 102 0;
#X connect 102 0 100 0;
#X connect 104 0 106 0;
#X connect 106 0 105 0;
#X connect 106 0 105 1;
#X connect 107 0 106 1;
#X connect 107 1 108 0;
#X connect 108 0 115 0;
#X connect 109 0 107 0;
#X connect 110 0 109 0;
#X connect 111 0 106 2;
#X connect 111 1 112 0;
#X connect 112 0 116 0;
#X connect 113 0 111 0;
#X connect 114 0 113 0;
#X connect 115 0 107 0;
#X connect 116 0 111 0;
