#N canvas -8 -8 1920 997 10;
#X obj 572 224 vsl 15 128 0 1 0 0 empty empty empty 0 -9 0 10 -262144
-1 -1 12700 1;
#X floatatom 572 380 5 0 0 0 - - -, f 5;
#X msg 376 169 0 2000;
#X msg 385 252 1 2000;
#X obj 268 178 bng 15 250 50 0 empty empty empty 17 7 0 10 -262144
-1 -1;
#X obj 478 313 line;
#X msg 255 230 0;
#X floatatom 478 357 5 0 0 0 - - -, f 5;
#X connect 0 0 1 0;
#X connect 2 0 5 0;
#X connect 3 0 5 0;
#X connect 4 0 6 0;
#X connect 5 0 0 0;
#X connect 5 0 7 0;
#X connect 6 0 3 0;
